<svg xmlns="http://www.w3.org/2000/svg" viewBox="0 0 1276 899" role="img" aria-label="VOW logo">
<g fill="#000000" fill-rule="evenodd">
<path d="M 1150 12 L 1148 15 L 1147 17 L 1145 19 L 1143 22 L 1141 24 L 1139 27 L 1137 30 L 1135 33 L 1133 36 L 1131 39 L 1129 42 L 1127 45 L 1125 48 L 1123 51 L 1121 54 L 1119 57 L 1117 60 L 1115 63 L 1113 66 L 1111 69 L 1109 72 L 1107 75 L 1105 78 L 1103 81 L 1101 84 L 1099 87 L 1097 90 L 1095 93 L 1093 96 L 1091 99 L 1089 102 L 1087 105 L 1085 108 L 1083 111 L 1081 114 L 1079 117 L 1077 120 L 1075 123 L 1073 126 L 1071 129 L 1069 132 L 1067 135 L 1065 138 L 1063 141 L 1061 144 L 1059 147 L 1057 150 L 1055 153 L 1053 156 L 1051 159 L 1049 162 L 1047 165 L 1045 168 L 1043 171 L 1041 174 L 1039 177 L 1037 180 L 1035 183 L 1033 186 L 1031 189 L 1029 192 L 1027 195 L 1025 198 L 1023 201 L 1021 204 L 1019 207 L 1017 210 L 1015 213 L 1013 216 L 1011 219 L 1009 222 L 1007 225 L 1005 228 L 1003 231 L 1001 234 L 999 237 L 997 240 L 995 243 L 993 246 L 991 249 L 989 252 L 987 255 L 985 258 L 983 261 L 981 264 L 979 267 L 977 270 L 975 273 L 973 276 L 971 279 L 969 282 L 967 285 L 965 288 L 963 291 L 961 294 L 959 297 L 957 300 L 955 303 L 953 306 L 951 309 L 949 312 L 947 315 L 945 318 L 943 321 L 941 324 L 939 327 L 937 330 L 935 333 L 933 336 L 931 339 L 929 342 L 927 345 L 925 348 L 923 351 L 921 354 L 919 357 L 917 360 L 915 363 L 913 366 L 911 369 L 909 372 L 907 375 L 905 378 L 903 381 L 901 384 L 899 387 L 897 390 L 895 393 L 893 396 L 891 399 L 889 402 L 887 405 L 885 408 L 883 411 L 881 414 L 879 417 L 877 420 L 875 423 L 873 426 L 871 429 L 869 432 L 867 435 L 865 438 L 863 441 L 861 444 L 859 447 L 857 450 L 855 453 L 853 456 L 851 459 L 849 462 L 847 465 L 845 468 L 843 471 L 841 474 L 839 477 L 837 480 L 835 483 L 833 486 L 831 489 L 829 492 L 827 495 L 825 498 L 823 501 L 821 504 L 819 507 L 817 510 L 815 513 L 813 516 L 811 519 L 809 522 L 807 525 L 805 528 L 803 531 L 801 534 L 799 537 L 797 540 L 795 543 L 793 546 L 791 549 L 789 552 L 787 555 L 785 558 L 783 561 L 781 564 L 779 567 L 777 570 L 775 573 L 773 576 L 771 579 L 769 582 L 767 585 L 765 588 L 763 591 L 761 594 L 759 597 L 757 600 L 755 603 L 753 606 L 751 609 L 749 612 L 747 615 L 745 618 L 743 621 L 741 624 L 739 627 L 737 630 L 735 633 L 733 636 L 731 639 L 729 642 L 727 645 L 725 648 L 723 651 L 721 654 L 719 657 L 717 660 L 715 663 L 713 666 L 711 669 L 709 672 L 707 675 L 705 678 L 703 681 L 701 684 L 699 687 L 697 690 L 695 693 L 693 696 L 691 699 L 689 702 L 687 705 L 685 708 L 683 711 L 681 714 L 679 717 L 677 720 L 675 723 L 673 726 L 671 729 L 669 732 L 667 735 L 665 738 L 663 741 L 661 744 L 659 747 L 657 750 L 655 753 L 653 756 L 651 759 L 649 762 L 647 765 L 645 768 L 643 771 L 641 774 L 639 777 L 637 780 L 635 783 L 633 786 L 631 789 L 629 792 L 627 795 L 625 798 L 623 801 L 621 804 L 619 807 L 617 810 L 615 813 L 613 816 L 611 819 L 609 822 L 607 825 L 605 828 L 603 831 L 601 834 L 599 837 L 597 840 L 595 843 L 593 846 L 591 849 L 589 852 L 587 855 L 585 858 L 583 861 L 581 864 L 579 867 L 577 870 L 575 873 L 573 876 L 571 879 L 569 882 L 567 885 L 565 888 L 563 891 L 561 894 L 559 897 L 557 899 L 555 897 L 553 894 L 551 891 L 549 888 L 547 885 L 545 882 L 543 879 L 541 876 L 539 873 L 537 870 L 535 867 L 533 864 L 531 861 L 529 858 L 527 855 L 525 852 L 523 849 L 521 846 L 519 843 L 517 840 L 515 837 L 513 834 L 511 831 L 509 828 L 507 825 L 505 822 L 503 819 L 501 816 L 499 813 L 497 810 L 495 807 L 493 804 L 491 801 L 489 798 L 487 795 L 485 792 L 483 789 L 481 786 L 479 783 L 477 780 L 475 777 L 473 774 L 471 771 L 469 768 L 467 765 L 465 762 L 463 759 L 461 756 L 459 753 L 457 750 L 455 747 L 453 744 L 451 741 L 449 738 L 447 735 L 445 732 L 443 729 L 441 726 L 439 723 L 437 720 L 435 717 L 433 714 L 431 711 L 429 708 L 427 705 L 425 702 L 423 699 L 421 696 L 419 693 L 417 690 L 415 687 L 413 684 L 411 681 L 409 678 L 407 675 L 405 672 L 403 669 L 401 666 L 399 663 L 397 660 L 395 657 L 393 654 L 391 651 L 389 648 L 387 645 L 385 642 L 383 639 L 381 636 L 379 633 L 377 630 L 375 627 L 373 624 L 371 621 L 369 618 L 367 615 L 365 612 L 363 609 L 361 606 L 359 603 L 357 600 L 355 597 L 353 594 L 351 591 L 349 588 L 347 585 L 345 582 L 343 579 L 341 576 L 339 573 L 337 570 L 335 567 L 333 564 L 331 561 L 329 558 L 327 555 L 325 552 L 323 549 L 321 546 L 319 543 L 317 540 L 315 537 L 313 534 L 311 531 L 309 528 L 307 525 L 305 522 L 303 519 L 301 516 L 299 513 L 297 510 L 295 507 L 293 504 L 291 501 L 289 498 L 287 495 L 285 492 L 283 489 L 281 486 L 279 483 L 277 480 L 275 477 L 273 474 L 271 471 L 269 468 L 267 465 L 265 462 L 263 459 L 261 456 L 259 453 L 257 450 L 255 447 L 253 444 L 251 441 L 249 438 L 247 435 L 245 432 L 243 429 L 241 426 L 239 423 L 237 420 L 235 417 L 233 414 L 231 411 L 229 408 L 227 405 L 225 402 L 223 399 L 221 396 L 219 393 L 217 390 L 215 387 L 213 384 L 211 381 L 209 378 L 207 375 L 205 372 L 203 369 L 201 366 L 199 363 L 197 360 L 195 357 L 193 354 L 191 351 L 189 348 L 187 345 L 185 342 L 183 339 L 181 336 L 179 333 L 177 330 L 175 327 L 173 324 L 171 321 L 169 318 L 167 315 L 165 312 L 163 309 L 161 306 L 159 303 L 157 300 L 155 297 L 153 294 L 151 291 L 149 288 L 147 285 L 145 282 L 143 279 L 141 276 L 139 273 L 137 270 L 135 267 L 133 264 L 131 261 L 129 258 L 127 255 L 125 252 L 123 249 L 121 246 L 119 243 L 117 240 L 115 237 L 113 234 L 111 231 L 109 228 L 107 225 L 105 222 L 103 219 L 101 216 L 99 213 L 97 210 L 95 207 L 93 204 L 91 201 L 89 198 L 87 195 L 85 192 L 83 189 L 81 186 L 79 183 L 77 180 L 75 177 L 73 174 L 71 171 L 69 168 L 67 165 L 65 162 L 63 159 L 61 156 L 59 153 L 57 150 L 55 147 L 53 144 L 51 141 L 49 138 L 47 135 L 45 132 L 43 129 L 41 126 L 39 123 L 37 120 L 35 117 L 33 114 L 31 111 L 29 108 L 27 105 L 25 102 L 23 99 L 21 96 L 19 93 L 17 90 L 15 87 L 13 84 L 11 81 L 9 78 L 7 75 L 5 72 L 3 69 L 1 66 L 0 63 L 0 60 L 2 57 L 4 54 L 6 51 L 8 48 L 10 45 L 12 42 L 14 39 L 16 36 L 18 33 L 20 30 L 22 27 L 24 24 L 26 21 L 28 18 L 30 15 L 32 12 L 34 9 L 36 6 L 38 3 L 40 0 L 43 0 L 45 3 L 47 6 L 49 9 L 51 12 L 53 15 L 55 18 L 57 21 L 59 24 L 61 27 L 63 30 L 65 33 L 67 36 L 69 39 L 71 42 L 73 45 L 75 48 L 77 51 L 79 54 L 81 57 L 83 60 L 85 63 L 87 66 L 89 69 L 91 72 L 93 75 L 95 78 L 97 81 L 99 84 L 101 87 L 103 90 L 105 93 L 107 96 L 109 99 L 111 102 L 113 105 L 115 108 L 117 111 L 119 114 L 121 117 L 123 120 L 125 123 L 127 126 L 129 129 L 131 132 L 133 135 L 135 138 L 137 141 L 139 144 L 141 147 L 143 150 L 145 153 L 147 156 L 149 159 L 151 162 L 153 165 L 155 168 L 157 171 L 159 174 L 161 177 L 163 180 L 165 183 L 167 186 L 169 189 L 171 192 L 173 195 L 175 198 L 177 201 L 179 204 L 181 207 L 183 210 L 185 213 L 187 216 L 189 219 L 191 222 L 193 225 L 195 228 L 197 231 L 199 234 L 201 237 L 203 240 L 205 243 L 207 246 L 209 249 L 211 252 L 213 255 L 215 258 L 217 261 L 219 264 L 221 267 L 223 270 L 225 273 L 227 276 L 229 279 L 231 282 L 233 285 L 235 288 L 237 291 L 239 294 L 241 297 L 243 300 L 245 303 L 247 306 L 249 309 L 251 312 L 253 315 L 255 318 L 257 321 L 259 324 L 261 327 L 263 330 L 265 333 L 267 336 L 269 339 L 271 342 L 273 345 L 275 348 L 277 351 L 279 354 L 281 357 L 283 360 L 285 363 L 287 366 L 289 369 L 291 372 L 293 375 L 295 378 L 297 381 L 299 384 L 301 387 L 303 390 L 305 393 L 307 396 L 309 399 L 311 402 L 313 405 L 315 408 L 317 411 L 319 414 L 321 417 L 323 420 L 325 423 L 327 426 L 329 429 L 331 432 L 333 435 L 335 438 L 337 441 L 339 444 L 341 447 L 343 450 L 345 453 L 347 456 L 349 459 L 351 462 L 353 465 L 355 468 L 357 471 L 359 474 L 361 477 L 363 480 L 365 483 L 367 486 L 369 489 L 371 492 L 373 495 L 375 498 L 377 501 L 379 504 L 381 507 L 383 510 L 385 513 L 387 516 L 389 519 L 391 522 L 393 525 L 395 528 L 397 531 L 399 534 L 401 537 L 403 540 L 405 543 L 407 546 L 409 549 L 411 552 L 413 555 L 415 558 L 417 561 L 419 564 L 421 567 L 423 570 L 425 573 L 427 576 L 429 579 L 431 582 L 433 585 L 435 588 L 437 591 L 439 594 L 441 597 L 443 600 L 445 603 L 447 606 L 449 609 L 451 612 L 453 615 L 455 618 L 457 621 L 459 624 L 461 627 L 463 630 L 465 633 L 467 636 L 469 639 L 471 642 L 473 645 L 475 648 L 477 651 L 479 654 L 481 657 L 483 660 L 485 663 L 487 666 L 489 669 L 491 672 L 493 675 L 495 678 L 497 681 L 499 684 L 501 687 L 503 690 L 505 693 L 507 696 L 509 699 L 511 702 L 513 705 L 515 708 L 517 711 L 519 714 L 521 717 L 523 720 L 525 723 L 527 726 L 529 729 L 531 732 L 533 735 L 535 738 L 537 741 L 539 744 L 541 747 L 543 750 L 545 753 L 547 756 L 549 759 L 551 762 L 553 765 L 555 768 L 557 771 L 559 774 L 561 777 L 563 780 L 565 783 L 567 786 L 569 789 L 571 792 L 573 795 L 575 798 L 577 801 L 579 804 L 581 807 L 583 810 L 585 813 L 587 816 L 589 819 L 591 822 L 593 825 L 595 828 L 597 831 L 599 834 L 601 837 L 603 840 L 605 843 L 607 846 L 609 849 L 611 852 L 613 855 L 615 858 L 617 861 L 619 864 L 621 867 L 623 870 L 625 873 L 627 876 L 629 879 L 631 882 L 633 885 L 635 888 L 637 891 L 639 894 L 641 897 L 643 899 L 645 897 L 647 894 L 649 891 L 651 888 L 653 885 L 655 882 L 657 879 L 659 876 L 661 873 L 663 870 L 665 867 L 667 864 L 669 861 L 671 858 L 673 855 L 675 852 L 677 849 L 679 846 L 681 843 L 683 840 L 685 837 L 687 834 L 689 831 L 691 828 L 693 825 L 695 822 L 697 819 L 699 816 L 701 813 L 703 810 L 705 807 L 707 804 L 709 801 L 711 798 L 713 795 L 715 792 L 717 789 L 719 786 L 721 783 L 723 780 L 725 777 L 727 774 L 729 771 L 731 768 L 733 765 L 735 762 L 737 759 L 739 756 L 741 753 L 743 750 L 745 747 L 747 744 L 749 741 L 751 738 L 753 735 L 755 732 L 757 729 L 759 726 L 761 723 L 763 720 L 765 717 L 767 714 L 769 711 L 771 708 L 773 705 L 775 702 L 777 699 L 779 696 L 781 693 L 783 690 L 785 687 L 787 684 L 789 681 L 791 678 L 793 675 L 795 672 L 797 669 L 799 666 L 801 663 L 803 660 L 805 657 L 807 654 L 809 651 L 811 648 L 813 645 L 815 642 L 817 639 L 819 636 L 821 633 L 823 630 L 825 627 L 827 624 L 829 621 L 831 618 L 833 615 L 835 612 L 837 609 L 839 606 L 841 603 L 843 600 L 845 597 L 847 594 L 849 591 L 851 588 L 853 585 L 855 582 L 857 579 L 859 576 L 861 573 L 863 570 L 865 567 L 867 564 L 869 561 L 871 558 L 873 555 L 875 552 L 877 549 L 879 546 L 881 543 L 883 540 L 885 537 L 887 534 L 889 531 L 891 528 L 893 525 L 895 522 L 897 519 L 899 516 L 901 513 L 903 510 L 905 507 L 907 504 L 909 501 L 911 498 L 913 495 L 915 492 L 917 489 L 919 486 L 921 483 L 923 480 L 925 477 L 927 474 L 929 471 L 931 468 L 933 465 L 935 462 L 937 459 L 939 456 L 941 453 L 943 450 L 945 447 L 947 444 L 949 441 L 951 438 L 953 435 L 955 432 L 957 429 L 959 426 L 961 423 L 963 420 L 965 417 L 967 414 L 969 411 L 971 408 L 973 405 L 975 402 L 977 399 L 979 396 L 981 393 L 983 390 L 985 387 L 987 384 L 989 381 L 991 378 L 993 375 L 995 372 L 997 369 L 999 366 L 1001 363 L 1003 360 L 1005 357 L 1007 354 L 1009 351 L 1011 348 L 1013 345 L 1015 342 L 1017 339 L 1019 336 L 1021 333 L 1023 330 L 1025 327 L 1027 324 L 1029 321 L 1031 318 L 1033 315 L 1035 312 L 1037 309 L 1039 306 L 1041 303 L 1043 300 L 1045 297 L 1047 294 L 1049 291 L 1051 288 L 1053 285 L 1055 282 L 1057 279 L 1059 276 L 1061 273 L 1063 270 L 1065 267 L 1067 264 L 1069 261 L 1071 258 L 1073 255 L 1075 252 L 1077 249 L 1079 246 L 1081 243 L 1083 240 L 1085 237 L 1087 234 L 1089 231 L 1091 228 L 1093 225 L 1095 222 L 1097 219 L 1099 216 L 1101 213 L 1103 210 L 1105 207 L 1107 204 L 1109 201 L 1111 198 L 1113 195 L 1115 192 L 1117 189 L 1119 186 L 1121 183 L 1123 180 L 1125 177 L 1127 174 L 1129 171 L 1131 168 L 1133 165 L 1135 162 L 1137 159 L 1139 156 L 1141 153 L 1143 150 L 1145 147 L 1147 144 L 1149 141 L 1151 138 L 1153 135 L 1155 132 L 1157 129 L 1159 126 L 1161 123 L 1163 120 L 1165 117 L 1167 114 L 1169 111 L 1171 108 L 1173 105 L 1175 102 L 1177 99 L 1179 96 L 1181 93 L 1183 90 L 1185 87 L 1187 84 L 1189 81 L 1191 78 L 1193 75 L 1195 72 L 1197 69 L 1199 66 L 1201 63 L 1203 60 L 1205 57 L 1207 54 L 1209 51 L 1211 48 L 1213 45 L 1215 42 L 1217 39 L 1219 36 L 1221 33 L 1223 30 L 1225 27 L 1227 24 L 1229 21 L 1231 18 L 1233 15 L 1235 12 L 1237 9 L 1239 6 L 1241 3 L 1243 0 L 1150 0 Z"/>
<path d="M 660 220 L 658 223 L 656 226 L 654 229 L 652 232 L 650 235 L 648 238 L 646 241 L 644 244 L 642 247 L 640 250 L 638 253 L 636 256 L 634 259 L 632 262 L 630 265 L 628 268 L 626 271 L 624 274 L 622 277 L 620 280 L 618 283 L 616 286 L 614 289 L 612 292 L 610 295 L 608 298 L 606 301 L 604 304 L 602 307 L 600 310 L 598 313 L 596 316 L 594 319 L 592 322 L 590 325 L 588 328 L 586 331 L 584 334 L 582 337 L 580 340 L 578 343 L 576 346 L 574 349 L 572 352 L 570 355 L 568 358 L 566 361 L 564 364 L 562 367 L 560 370 L 558 373 L 556 376 L 554 379 L 552 382 L 550 385 L 548 388 L 546 391 L 544 394 L 542 397 L 540 400 L 538 403 L 536 406 L 534 409 L 532 412 L 530 415 L 528 418 L 526 421 L 524 424 L 522 427 L 520 430 L 518 433 L 516 436 L 514 439 L 512 442 L 510 445 L 508 448 L 506 451 L 504 454 L 502 457 L 500 460 L 498 463 L 496 466 L 494 469 L 492 472 L 490 475 L 488 478 L 486 481 L 484 484 L 482 487 L 480 490 L 478 493 L 476 496 L 474 499 L 472 502 L 470 505 L 468 508 L 466 511 L 464 514 L 462 517 L 460 520 L 458 523 L 456 526 L 454 529 L 452 532 L 450 535 L 448 538 L 446 541 L 444 544 L 442 547 L 440 550 L 438 553 L 436 556 L 434 559 L 432 562 L 430 565 L 428 568 L 426 571 L 424 574 L 422 577 L 420 580 L 418 583 L 416 586 L 414 589 L 412 592 L 410 595 L 408 598 L 406 601 L 404 604 L 402 607 L 400 610 L 398 613 L 396 616 L 394 619 L 392 622 L 390 625 L 388 628 L 386 631 L 384 634 L 382 637 L 380 640 L 378 643 L 376 646 L 374 649 L 372 652 L 370 655 L 368 658 L 366 661 L 364 664 L 362 667 L 360 670 L 358 673 L 356 676 L 354 679 L 352 682 L 350 685 L 348 688 L 346 691 L 344 694 L 342 697 L 340 700 L 338 703 L 336 706 L 334 709 L 332 712 L 330 715 L 328 718 L 326 721 L 324 724 L 322 727 L 320 730 L 318 733 L 316 736 L 314 739 L 312 742 L 310 745 L 308 748 L 306 751 L 304 754 L 302 757 L 300 760 L 298 763 L 296 766 L 294 769 L 292 772 L 290 775 L 288 778 L 286 781 L 284 784 L 282 787 L 280 790 L 278 793 L 276 796 L 274 799 L 272 802 L 270 805 L 268 808 L 266 811 L 264 814 L 262 817 L 260 820 L 258 823 L 256 826 L 254 829 L 252 832 L 250 835 L 248 838 L 246 841 L 244 844 L 242 847 L 240 850 L 238 853 L 236 856 L 234 859 L 232 862 L 230 865 L 228 868 L 226 871 L 224 874 L 222 877 L 220 880 L 218 883 L 216 886 L 214 889 L 212 892 L 210 895 L 208 898 L 206 899 L 204 897 L 202 894 L 200 891 L 198 888 L 196 885 L 194 882 L 192 879 L 190 876 L 188 873 L 186 870 L 184 867 L 182 864 L 180 861 L 178 858 L 176 855 L 174 852 L 172 849 L 170 846 L 168 843 L 166 840 L 164 837 L 162 834 L 160 831 L 158 828 L 156 825 L 154 822 L 152 819 L 150 816 L 148 813 L 146 810 L 144 807 L 142 804 L 140 801 L 138 798 L 136 795 L 134 792 L 132 789 L 130 786 L 128 783 L 126 780 L 124 777 L 122 774 L 120 771 L 118 768 L 116 765 L 114 762 L 112 759 L 110 756 L 108 753 L 106 750 L 104 747 L 102 744 L 100 741 L 98 738 L 96 735 L 94 732 L 92 729 L 90 726 L 88 723 L 86 720 L 84 717 L 82 714 L 80 711 L 78 708 L 76 705 L 74 702 L 72 699 L 70 696 L 68 693 L 66 690 L 64 687 L 62 684 L 60 681 L 58 678 L 56 675 L 54 672 L 52 669 L 50 666 L 48 663 L 46 660 L 44 657 L 42 654 L 40 651 L 38 648 L 36 645 L 34 642 L 32 639 L 30 636 L 28 633 L 26 630 L 24 627 L 22 624 L 20 621 L 18 618 L 16 615 L 14 612 L 12 609 L 10 606 L 8 603 L 6 600 L 4 597 L 2 594 L 0 591 L 0 588 L 2 585 L 4 582 L 6 579 L 8 576 L 10 573 L 12 570 L 14 567 L 16 564 L 18 561 L 20 558 L 22 555 L 24 552 L 26 549 L 28 546 L 30 543 L 32 540 L 34 537 L 36 534 L 38 531 L 40 528 L 42 525 L 44 522 L 46 519 L 48 516 L 50 513 L 52 510 L 54 507 L 56 504 L 58 501 L 60 498 L 62 495 L 64 492 L 66 489 L 68 486 L 70 483 L 72 480 L 74 477 L 76 474 L 78 471 L 80 468 L 82 465 L 84 462 L 86 459 L 88 456 L 90 453 L 92 450 L 94 447 L 96 444 L 98 441 L 100 438 L 102 435 L 104 432 L 106 429 L 108 426 L 110 423 L 112 420 L 114 417 L 116 414 L 118 411 L 120 408 L 122 405 L 124 402 L 126 399 L 128 396 L 130 393 L 132 390 L 134 387 L 136 384 L 138 381 L 140 378 L 142 375 L 144 372 L 146 369 L 148 366 L 150 363 L 152 360 L 154 357 L 156 354 L 158 351 L 160 348 L 162 345 L 164 342 L 166 339 L 168 336 L 170 333 L 172 330 L 174 327 L 176 324 L 178 321 L 180 318 L 182 315 L 184 312 L 186 309 L 188 306 L 190 303 L 192 300 L 194 297 L 196 294 L 198 291 L 200 288 L 202 285 L 204 282 L 206 279 L 208 276 L 210 273 L 212 270 L 214 267 L 216 264 L 218 261 L 220 258 L 222 255 L 224 252 L 226 249 L 228 246 L 230 243 L 232 240 L 234 237 L 236 234 L 238 231 L 240 228 L 242 225 L 244 222 L 246 219 L 248 216 L 250 213 L 252 210 L 254 207 L 256 204 L 258 201 L 260 198 L 262 195 L 264 192 L 266 189 L 268 186 L 270 183 L 272 180 L 274 177 L 276 174 L 278 171 L 280 168 L 282 165 L 284 162 L 286 159 L 288 156 L 290 153 L 292 150 L 294 147 L 296 144 L 298 141 L 300 138 L 302 135 L 304 132 L 306 129 L 308 126 L 310 123 L 312 120 L 314 117 L 316 114 L 318 111 L 320 108 L 322 105 L 324 102 L 326 99 L 328 96 L 330 93 L 332 90 L 334 87 L 336 84 L 338 81 L 340 78 L 342 75 L 344 72 L 346 69 L 348 66 L 350 63 L 352 60 L 354 57 L 356 54 L 358 51 L 360 48 L 362 45 L 364 42 L 366 39 L 368 36 L 370 33 L 372 30 L 374 27 L 376 24 L 378 21 L 380 18 L 382 15 L 384 12 L 386 9 L 388 6 L 390 3 L 392 0 L 395 0 L 397 3 L 399 6 L 401 9 L 403 12 L 405 15 L 407 18 L 409 21 L 411 24 L 413 27 L 415 30 L 417 33 L 419 36 L 421 39 L 423 42 L 425 45 L 427 48 L 429 51 L 431 54 L 433 57 L 435 60 L 437 63 L 439 66 L 441 69 L 443 72 L 445 75 L 447 78 L 449 81 L 451 84 L 453 87 L 455 90 L 457 93 L 459 96 L 461 99 L 463 102 L 465 105 L 467 108 L 469 111 L 471 114 L 473 117 L 475 120 L 477 123 L 479 126 L 481 129 L 483 132 L 485 135 L 487 138 L 489 141 L 491 144 L 493 147 L 495 150 L 497 153 L 499 156 L 501 159 L 503 162 L 505 165 L 507 168 L 509 171 L 511 174 L 513 177 L 515 180 L 517 183 L 519 186 L 521 189 L 523 192 L 525 195 L 527 198 L 529 201 L 531 204 L 533 207 L 535 210 L 537 213 L 539 216 L 541 219 L 543 222 L 545 225 L 547 228 L 549 231 L 551 234 L 553 237 L 555 240 L 557 243 L 559 246 L 561 249 L 563 252 L 565 255 L 567 258 L 569 261 L 571 264 L 573 267 L 575 270 L 577 273 L 579 276 L 581 279 L 583 282 L 585 285 L 587 288 L 589 291 L 591 294 L 593 297 L 595 300 L 597 303 L 599 306 L 601 309 L 603 312 L 605 315 L 607 318 L 609 321 L 611 324 L 613 327 L 615 330 L 617 333 L 619 336 L 621 339 L 623 342 L 625 345 L 627 348 L 629 351 L 631 354 L 633 357 L 635 360 L 637 363 L 639 366 L 641 369 L 643 372 L 645 375 L 647 378 L 649 381 L 651 384 L 653 387 L 655 390 L 657 393 L 659 396 L 661 399 L 663 402 L 665 405 L 667 408 L 669 411 L 671 414 L 673 417 L 675 420 L 677 423 L 679 426 L 681 429 L 683 432 L 685 435 L 687 438 L 689 441 L 691 444 L 693 447 L 695 450 L 697 453 L 699 456 L 701 459 L 703 462 L 705 465 L 707 468 L 709 471 L 711 474 L 713 477 L 715 480 L 717 483 L 719 486 L 721 489 L 723 492 L 725 495 L 727 498 L 729 501 L 731 504 L 733 507 L 735 510 L 737 513 L 739 516 L 741 519 L 743 522 L 745 525 L 747 528 L 749 531 L 751 534 L 753 537 L 755 540 L 757 543 L 759 546 L 761 549 L 763 552 L 765 555 L 767 558 L 769 561 L 771 564 L 773 567 L 775 570 L 777 573 L 779 576 L 781 579 L 783 582 L 785 585 L 787 588 L 789 591 L 791 594 L 793 597 L 795 600 L 797 603 L 799 606 L 801 609 L 803 612 L 805 615 L 807 618 L 809 621 L 811 624 L 813 627 L 815 630 L 817 633 L 819 636 L 821 639 L 823 642 L 825 645 L 827 648 L 829 651 L 831 654 L 833 657 L 835 660 L 837 663 L 839 666 L 841 669 L 843 672 L 845 675 L 847 678 L 849 681 L 851 684 L 853 687 L 855 690 L 857 693 L 859 696 L 861 699 L 863 702 L 865 705 L 867 708 L 869 711 L 871 714 L 873 717 L 875 720 L 877 723 L 879 726 L 881 729 L 883 732 L 885 735 L 887 738 L 889 741 L 891 744 L 893 747 L 895 750 L 897 753 L 899 756 L 901 759 L 903 762 L 905 765 L 907 768 L 909 771 L 911 774 L 913 777 L 915 780 L 917 783 L 919 786 L 921 789 L 923 792 L 925 795 L 927 798 L 929 801 L 931 804 L 933 807 L 935 810 L 937 813 L 939 816 L 941 819 L 943 822 L 945 825 L 947 828 L 949 831 L 951 834 L 953 837 L 955 840 L 957 843 L 959 846 L 961 849 L 963 852 L 965 855 L 967 858 L 969 861 L 971 864 L 973 867 L 975 870 L 977 873 L 979 876 L 981 879 L 983 882 L 985 885 L 987 888 L 989 891 L 991 894 L 993 897 L 995 899 L 997 897 L 999 894 L 1001 891 L 1003 888 L 1005 885 L 1007 882 L 1009 879 L 1011 876 L 1013 873 L 1015 870 L 1017 867 L 1019 864 L 1021 861 L 1023 858 L 1025 855 L 1027 852 L 1029 849 L 1031 846 L 1033 843 L 1035 840 L 1037 837 L 1039 834 L 1041 831 L 1043 828 L 1045 825 L 1047 822 L 1049 819 L 1051 816 L 1053 813 L 1055 810 L 1057 807 L 1059 804 L 1061 801 L 1063 798 L 1065 795 L 1067 792 L 1069 789 L 1071 786 L 1073 783 L 1075 780 L 1077 777 L 1079 774 L 1081 771 L 1083 768 L 1085 765 L 1087 762 L 1089 759 L 1091 756 L 1093 753 L 1095 750 L 1097 747 L 1099 744 L 1101 741 L 1103 738 L 1105 735 L 1107 732 L 1109 729 L 1111 726 L 1113 723 L 1115 720 L 1117 717 L 1119 714 L 1121 711 L 1123 708 L 1125 705 L 1127 702 L 1129 699 L 1131 696 L 1133 693 L 1135 690 L 1137 687 L 1139 684 L 1141 681 L 1143 678 L 1145 675 L 1147 672 L 1149 669 L 1151 666 L 1153 663 L 1155 660 L 1157 657 L 1159 654 L 1161 651 L 1163 648 L 1165 645 L 1167 642 L 1169 639 L 1171 636 L 1173 633 L 1175 630 L 1177 627 L 1179 624 L 1181 621 L 1183 618 L 1185 615 L 1187 612 L 1189 609 L 1191 606 L 1193 603 L 1195 600 L 1197 597 L 1199 594 L 1201 591 L 1203 588 L 1205 585 L 1207 582 L 1209 579 L 1211 576 L 1213 573 L 1215 570 L 1217 567 L 1219 564 L 1221 561 L 1223 558 L 1225 555 L 1227 552 L 1229 549 L 1231 546 L 1233 543 L 1235 540 L 1237 537 L 1239 534 L 1241 531 L 1243 528 L 1245 525 L 1247 522 L 1249 519 L 1251 516 L 1253 513 L 1255 510 L 1257 507 L 1259 504 L 1261 501 L 1263 498 L 1265 495 L 1267 492 L 1269 489 L 1271 486 L 1273 483 L 1275 480 L 1275 477 L 1273 474 L 1271 471 L 1269 468 L 1267 465 L 1265 462 L 1263 459 L 1261 456 L 1259 453 L 1257 450 L 1255 447 L 1253 444 L 1251 441 L 1249 438 L 1247 435 L 1245 432 L 1243 429 L 1241 426 L 1239 423 L 1237 420 L 1235 417 L 1233 414 L 1231 411 L 1229 408 L 1227 405 L 1225 402 L 1223 399 L 1221 396 L 1219 393 L 1217 390 L 1215 387 L 1213 384 L 1211 381 L 1209 378 L 1207 375 L 1205 372 L 1203 369 L 1201 366 L 1199 363 L 1197 360 L 1195 357 L 1193 354 L 1191 351 L 1189 348 L 1187 345 L 1185 342 L 1183 339 L 1181 336 L 1179 333 L 1177 330 L 1175 327 L 1173 324 L 1171 321 L 1169 318 L 1167 315 L 1165 312 L 1163 309 L 1161 306 L 1159 303 L 1157 300 L 1155 297 L 1153 294 L 1151 291 L 1149 288 L 1147 285 L 1145 282 L 1143 279 L 1141 276 L 1139 273 L 1137 270 L 1135 267 L 1133 264 L 1131 261 L 1129 258 L 1127 255 L 1125 252 L 1123 249 L 1121 246 L 1119 243 L 1117 240 L 1115 237 L 1113 234 L 1111 231 L 1109 228 L 1107 225 L 1105 222 L 1103 219 L 1101 216 L 1099 213 L 1097 210 L 1095 207 L 1093 204 L 1091 201 L 1089 198 L 1087 195 L 1085 192 L 1083 189 L 1081 186 L 1079 183 L 1077 180 L 1075 177 L 1073 174 L 1071 171 L 1069 168 L 1067 165 L 1065 162 L 1063 159 L 1061 156 L 1059 153 L 1057 150 L 1055 147 L 1053 144 L 1051 141 L 1049 138 L 1047 135 L 1045 132 L 1043 129 L 1041 126 L 1039 123 L 1037 120 L 1035 117 L 1033 114 L 1031 111 L 1029 108 L 1027 105 L 1025 102 L 1023 99 L 1021 96 L 1019 93 L 1017 90 L 1015 87 L 1013 84 L 1011 81 L 1009 78 L 1007 75 L 1005 72 L 1003 69 L 1001 66 L 999 63 L 997 60 L 995 57 L 993 54 L 991 51 L 989 48 L 987 45 L 985 42 L 983 39 L 981 36 L 979 33 L 977 30 L 975 27 L 973 24 L 971 21 L 969 18 L 967 15 L 965 12 L 963 9 L 961 6 L 959 3 L 957 0 L 660 0 Z"/>
</g>
</svg>